<?xml version="1.0" encoding="UTF-8" standalone="no"?>
<!-- Created with Inkscape (http://www.inkscape.org/) -->

<svg
   xmlns:ns0="http://www.iki.fi/pav/software/textext/"
   xmlns:osb="http://www.openswatchbook.org/uri/2009/osb"
   xmlns:dc="http://purl.org/dc/elements/1.1/"
   xmlns:cc="http://creativecommons.org/ns#"
   xmlns:rdf="http://www.w3.org/1999/02/22-rdf-syntax-ns#"
   xmlns:svg="http://www.w3.org/2000/svg"
   xmlns="http://www.w3.org/2000/svg"
   xmlns:xlink="http://www.w3.org/1999/xlink"
   xmlns:sodipodi="http://sodipodi.sourceforge.net/DTD/sodipodi-0.dtd"
   xmlns:inkscape="http://www.inkscape.org/namespaces/inkscape"
   width="210mm"
   height="297mm"
   viewBox="0 0 744.09448819 1052.3622047"
   id="svg2"
   version="1.1"
   inkscape:version="0.91 r13725"
   sodipodi:docname="vae_arch.svg">
  <sodipodi:namedview
     id="base"
     pagecolor="#ffffff"
     bordercolor="#666666"
     borderopacity="1.0"
     inkscape:pageopacity="0.0"
     inkscape:pageshadow="2"
     inkscape:zoom="1.4"
     inkscape:cx="477.37379"
     inkscape:cy="882.98816"
     inkscape:document-units="px"
     inkscape:current-layer="layer1"
     showgrid="false"
     inkscape:snap-text-baseline="true"
     showguides="true"
     inkscape:window-width="1916"
     inkscape:window-height="1012"
     inkscape:window-x="0"
     inkscape:window-y="42"
     inkscape:window-maximized="0" />
  <defs
     id="defs4">
    <marker
       inkscape:stockid="Arrow1Lend"
       orient="auto"
       refY="0.0"
       refX="0.0"
       id="marker6808"
       style="overflow:visible;"
       inkscape:isstock="true">
      <path
         id="path6810"
         d="M 0.0,0.0 L 5.0,-5.0 L -12.5,0.0 L 5.0,5.0 L 0.0,0.0 z "
         style="fill-rule:evenodd;stroke:#000000;stroke-width:1pt;stroke-opacity:1;fill:#000000;fill-opacity:1"
         transform="scale(0.8) rotate(180) translate(12.5,0)" />
    </marker>
    <linearGradient
       id="linearGradient6774"
       osb:paint="solid">
      <stop
         style="stop-color:#000000;stop-opacity:1;"
         offset="0"
         id="stop6776" />
    </linearGradient>
    <marker
       inkscape:stockid="Arrow1Lend"
       orient="auto"
       refY="0.0"
       refX="0.0"
       id="marker5289"
       style="overflow:visible;"
       inkscape:isstock="true">
      <path
         id="path5291"
         d="M 0.0,0.0 L 5.0,-5.0 L -12.5,0.0 L 5.0,5.0 L 0.0,0.0 z "
         style="fill-rule:evenodd;stroke:#000000;stroke-width:1pt;stroke-opacity:1;fill:#000000;fill-opacity:1"
         transform="scale(0.8) rotate(180) translate(12.5,0)" />
    </marker>
    <linearGradient
       inkscape:collect="always"
       id="linearGradient5279">
      <stop
         style="stop-color:#000000;stop-opacity:1;"
         offset="0"
         id="stop5281" />
      <stop
         style="stop-color:#000000;stop-opacity:0;"
         offset="1"
         id="stop5283" />
    </linearGradient>
    <marker
       inkscape:stockid="Arrow2Lend"
       orient="auto"
       refY="0.0"
       refX="0.0"
       id="Arrow2Lend"
       style="overflow:visible;"
       inkscape:isstock="true">
      <path
         id="path4239"
         style="fill-rule:evenodd;stroke-width:0.625;stroke-linejoin:round;stroke:#000000;stroke-opacity:1;fill:#000000;fill-opacity:1"
         d="M 8.7185878,4.0337352 L -2.2072895,0.016013256 L 8.7185884,-4.0017078 C 6.9730900,-1.6296469 6.9831476,1.6157441 8.7185878,4.0337352 z "
         transform="scale(1.1) rotate(180) translate(1,0)" />
    </marker>
    <inkscape:perspective
       sodipodi:type="inkscape:persp3d"
       inkscape:vp_x="765.71429 : 1226.1811 : 1"
       inkscape:vp_y="0 : 1000 : 0"
       inkscape:vp_z="859.80878 : 761.89539 : 1"
       inkscape:persp3d-origin="372.04724 : 350.7874 : 1"
       id="perspective4547" />
    <marker
       inkscape:stockid="Arrow1Lend"
       orient="auto"
       refY="0.0"
       refX="0.0"
       id="marker4502"
       style="overflow:visible;"
       inkscape:isstock="true">
      <path
         id="path4504"
         d="M 0.0,0.0 L 5.0,-5.0 L -12.5,0.0 L 5.0,5.0 L 0.0,0.0 z "
         style="fill-rule:evenodd;stroke:#000000;stroke-width:1pt;stroke-opacity:1;fill:#000000;fill-opacity:1"
         transform="scale(0.8) rotate(180) translate(12.5,0)" />
    </marker>
    <marker
       inkscape:stockid="Tail"
       orient="auto"
       refY="0.0"
       refX="0.0"
       id="Tail"
       style="overflow:visible"
       inkscape:isstock="true">
      <g
         id="g4254"
         transform="scale(-1.2)"
         style="stroke:none;stroke-opacity:1;fill:#000000;fill-opacity:1">
        <path
           id="path4256"
           d="M -3.8048674,-3.9585227 L 0.54352094,0"
           style="fill:#000000;fill-rule:evenodd;stroke:none;stroke-width:0.8;stroke-linecap:round;stroke-opacity:1;fill-opacity:1" />
        <path
           id="path4258"
           d="M -1.2866832,-3.9585227 L 3.0617053,0"
           style="fill:#000000;fill-rule:evenodd;stroke:none;stroke-width:0.8;stroke-linecap:round;stroke-opacity:1;fill-opacity:1" />
        <path
           id="path4260"
           d="M 1.3053582,-3.9585227 L 5.6537466,0"
           style="fill:#000000;fill-rule:evenodd;stroke:none;stroke-width:0.8;stroke-linecap:round;stroke-opacity:1;fill-opacity:1" />
        <path
           id="path4262"
           d="M -3.8048674,4.1775838 L 0.54352094,0.21974226"
           style="fill:#000000;fill-rule:evenodd;stroke:none;stroke-width:0.8;stroke-linecap:round;stroke-opacity:1;fill-opacity:1" />
        <path
           id="path4264"
           d="M -1.2866832,4.1775838 L 3.0617053,0.21974226"
           style="fill:#000000;fill-rule:evenodd;stroke:none;stroke-width:0.8;stroke-linecap:round;stroke-opacity:1;fill-opacity:1" />
        <path
           id="path4266"
           d="M 1.3053582,4.1775838 L 5.6537466,0.21974226"
           style="fill:#000000;fill-rule:evenodd;stroke:none;stroke-width:0.8;stroke-linecap:round;stroke-opacity:1;fill-opacity:1" />
      </g>
    </marker>
    <marker
       inkscape:stockid="Arrow1Lend"
       orient="auto"
       refY="0.0"
       refX="0.0"
       id="marker4480"
       style="overflow:visible;"
       inkscape:isstock="true">
      <path
         id="path4482"
         d="M 0.0,0.0 L 5.0,-5.0 L -12.5,0.0 L 5.0,5.0 L 0.0,0.0 z "
         style="fill-rule:evenodd;stroke:none;stroke-width:1pt;stroke-opacity:1;fill:#000000;fill-opacity:1"
         transform="scale(0.8) rotate(180) translate(12.5,0)" />
    </marker>
    <marker
       inkscape:stockid="Arrow1Lstart"
       orient="auto"
       refY="0.0"
       refX="0.0"
       id="marker4477"
       style="overflow:visible"
       inkscape:isstock="true">
      <path
         id="path4218"
         d="M 0.0,0.0 L 5.0,-5.0 L -12.5,0.0 L 5.0,5.0 L 0.0,0.0 z "
         style="fill-rule:evenodd;stroke:none;stroke-width:1pt;stroke-opacity:1;fill:#000000;fill-opacity:1"
         transform="scale(0.8) translate(12.5,0)" />
    </marker>
    <marker
       inkscape:stockid="Arrow1Lend"
       orient="auto"
       refY="0.0"
       refX="0.0"
       id="marker4474"
       style="overflow:visible;"
       inkscape:isstock="true">
      <path
         id="path4221"
         d="M 0.0,0.0 L 5.0,-5.0 L -12.5,0.0 L 5.0,5.0 L 0.0,0.0 z "
         style="fill-rule:evenodd;stroke:none;stroke-width:1pt;stroke-opacity:1;fill:#000000;fill-opacity:1"
         transform="scale(0.8) rotate(180) translate(12.5,0)" />
    </marker>
    <marker
       inkscape:stockid="Arrow1Lstart"
       orient="auto"
       refY="0.0"
       refX="0.0"
       id="Arrow1Lstart"
       style="overflow:visible"
       inkscape:isstock="true">
      <path
         id="path4195"
         d="M 0.0,0.0 L 5.0,-5.0 L -12.5,0.0 L 5.0,5.0 L 0.0,0.0 z "
         style="fill-rule:evenodd;stroke:none;stroke-width:1pt;stroke-opacity:1;fill:#000000;fill-opacity:1"
         transform="scale(0.8) translate(12.5,0)" />
    </marker>
    <marker
       inkscape:stockid="Arrow1Lend"
       orient="auto"
       refY="0.0"
       refX="0.0"
       id="Arrow1Lend"
       style="overflow:visible;"
       inkscape:isstock="true">
      <path
         id="path4198"
         d="M 0.0,0.0 L 5.0,-5.0 L -12.5,0.0 L 5.0,5.0 L 0.0,0.0 z "
         style="fill-rule:evenodd;stroke:none;stroke-width:1pt;stroke-opacity:1;fill:#000000;fill-opacity:1"
         transform="scale(0.8) rotate(180) translate(12.5,0)" />
    </marker>
    <inkscape:path-effect
       effect="powerstroke"
       id="path-effect4189"
       is_visible="true"
       offset_points="0,0.5"
       sort_points="true"
       interpolator_type="CubicBezierJohan"
       interpolator_beta="0.2"
       start_linecap_type="zerowidth"
       linejoin_type="round"
       miter_limit="4"
       end_linecap_type="zerowidth"
       cusp_linecap_type="round" />
    <linearGradient
       inkscape:collect="always"
       xlink:href="#linearGradient5279"
       id="linearGradient5285"
       x1="8.2835207"
       y1="202.62994"
       x2="46.769849"
       y2="202.62994"
       gradientUnits="userSpaceOnUse" />
    <marker
       inkscape:stockid="Arrow2Lend"
       orient="auto"
       refY="0"
       refX="0"
       id="Arrow2Lend-4"
       style="overflow:visible"
       inkscape:isstock="true">
      <path
         inkscape:connector-curvature="0"
         id="path4239-9"
         style="fill:#000000;fill-opacity:1;fill-rule:evenodd;stroke:#000000;stroke-width:0.625;stroke-linejoin:round;stroke-opacity:1"
         d="M 8.7185878,4.0337352 -2.2072895,0.01601326 8.7185884,-4.0017078 c -1.7454984,2.3720609 -1.7354408,5.6174519 -6e-7,8.035443 z"
         transform="matrix(-1.1,0,0,-1.1,-1.1,0)" />
    </marker>
  </defs>
  <metadata
     id="metadata7">
    <rdf:RDF>
      <cc:Work
         rdf:about="">
        <dc:format>image/svg+xml</dc:format>
        <dc:type
           rdf:resource="http://purl.org/dc/dcmitype/StillImage" />
        <dc:title />
      </cc:Work>
    </rdf:RDF>
  </metadata>
  <g
     inkscape:label="Ebene 1"
     inkscape:groupmode="layer"
     id="layer1">
    <rect
       style="fill:#ffffff;fill-opacity:1;stroke:#0e0e0e;stroke-width:2;stroke-linejoin:miter;stroke-miterlimit:4;stroke-dasharray:none;stroke-opacity:1"
       id="rect4136"
       width="104.04572"
       height="71.720833"
       x="95.964493"
       y="170.49904" />
    <flowRoot
       xml:space="preserve"
       id="flowRoot4138"
       style="font-style:normal;font-weight:normal;font-size:17.5px;line-height:125%;font-family:sans-serif;text-align:center;letter-spacing:0px;word-spacing:0px;text-anchor:middle;fill:#000000;fill-opacity:1;stroke:none;stroke-width:1px;stroke-linecap:butt;stroke-linejoin:miter;stroke-opacity:1"
       transform="translate(-1.0101501,43.43656)"><flowRegion
         id="flowRegion4140"><rect
           id="rect4142"
           width="102.02543"
           height="70.710709"
           x="97.984795"
           y="148.27568"
           style="font-size:17.5px;line-height:125%;text-align:center;letter-spacing:0px;text-anchor:middle" /></flowRegion><flowPara
         id="flowPara4144"
         style="line-height:125%">Encoder</flowPara></flowRoot>    <flowRoot
       xml:space="preserve"
       id="flowRoot4146"
       style="fill:black;stroke:none;stroke-opacity:1;stroke-width:1px;stroke-linejoin:miter;stroke-linecap:butt;fill-opacity:1;font-family:sans-serif;font-style:normal;font-weight:normal;font-size:40px;line-height:125%;letter-spacing:0px;word-spacing:0px"><flowRegion
         id="flowRegion4148"><rect
           id="rect4150"
           width="7.5765743"
           height="41.146023"
           x="147.98692"
           y="186.9317" /></flowRegion><flowPara
         id="flowPara4152" /></flowRoot>    <path
       style="fill:none;fill-rule:evenodd;stroke:#000000;stroke-width:1px;stroke-linecap:butt;stroke-linejoin:miter;stroke-opacity:1;marker-end:url(#marker6808)"
       d="m 200,205.21935 70.71429,0"
       id="path4500"
       inkscape:connector-curvature="0" />
    <rect
       style="fill:#bdbdbd;fill-opacity:1;fill-rule:evenodd;stroke:#bdbdbd;stroke-width:15.82566452;stroke-linecap:butt;stroke-linejoin:round;stroke-miterlimit:4;stroke-dasharray:none;stroke-dashoffset:0;stroke-opacity:1"
       id="rect4563"
       width="62.151531"
       height="115.69701"
       x="279.67526"
       y="147.34705" />
    <text
       xml:space="preserve"
       style="font-style:normal;font-weight:normal;font-size:40px;line-height:125%;font-family:sans-serif;letter-spacing:0px;word-spacing:0px;fill:#000000;fill-opacity:1;stroke:none;stroke-width:1px;stroke-linecap:butt;stroke-linejoin:miter;stroke-opacity:1"
       x="281.42856"
       y="199.50504"
       id="text4565"
       sodipodi:linespacing="125%"><tspan
         sodipodi:role="line"
         id="tspan4567"
         x="281.42856"
         y="199.50504"
         style="font-size:17.5px">Latent</tspan><tspan
         sodipodi:role="line"
         x="281.42856"
         y="221.38004"
         id="tspan4569"
         style="font-size:17.5px">space</tspan></text>
    <path
       style="fill:none;fill-rule:evenodd;stroke:#000000;stroke-width:1;stroke-linecap:butt;stroke-linejoin:miter;stroke-miterlimit:4;stroke-dasharray:none;stroke-opacity:1;marker-end:url(#Arrow2Lend)"
       d="m 349.53178,205.29573 76.57548,1.66108"
       id="path4571"
       inkscape:connector-curvature="0" />
    <text
       xml:space="preserve"
       style="font-style:normal;font-weight:normal;font-size:40px;line-height:125%;font-family:sans-serif;letter-spacing:0px;word-spacing:0px;fill:#000000;fill-opacity:1;stroke:none;stroke-width:1px;stroke-linecap:butt;stroke-linejoin:miter;stroke-opacity:1;opacity:1;"
       x="6.5659914"
       y="208.88483"
       id="text4575"
       sodipodi:linespacing="125%"><tspan
         sodipodi:role="line"
         id="tspan4577"
         x="6.5659914"
         y="208.88483"
         style="font-size:17.5px;stroke:none;stroke-opacity:1;fill-opacity:1;fill:#000000;">Data</tspan></text>
    <path
       style="fill:none;fill-rule:evenodd;stroke:#000000;stroke-width:1px;stroke-linecap:butt;stroke-linejoin:miter;stroke-opacity:1;marker-end:url(#marker5289)"
       d="m 47.982246,204.88483 46.467017,0"
       id="path5287"
       inkscape:connector-curvature="0" />
    <rect
       style="fill:#ffffff;fill-opacity:1;stroke:#0e0e0e;stroke-width:2;stroke-linejoin:miter;stroke-miterlimit:4;stroke-dasharray:none;stroke-opacity:1"
       id="rect4136-9"
       width="104.04572"
       height="71.720833"
       x="427.7677"
       y="170.49904" />
    <flowRoot
       xml:space="preserve"
       id="flowRoot4138-6"
       style="font-style:normal;font-weight:normal;font-size:17.5px;line-height:125%;font-family:sans-serif;text-align:center;letter-spacing:0px;word-spacing:0px;text-anchor:middle;fill:#000000;fill-opacity:1;stroke:none;stroke-width:1px;stroke-linecap:butt;stroke-linejoin:miter;stroke-opacity:1"
       transform="translate(330.79307,43.43656)"><flowRegion
         id="flowRegion4140-2"><rect
           id="rect4142-5"
           width="102.02543"
           height="70.710709"
           x="97.984795"
           y="148.27568"
           style="font-size:17.5px;line-height:125%;text-align:center;letter-spacing:0px;text-anchor:middle" /></flowRegion><flowPara
         style="line-height:125%"
         id="flowPara5320">Decoder</flowPara></flowRoot>    <path
       style="fill:none;fill-rule:evenodd;stroke:#000000;stroke-width:0.90988809;stroke-linecap:butt;stroke-linejoin:miter;stroke-miterlimit:4;stroke-dasharray:none;stroke-opacity:1;marker-end:url(#Arrow2Lend-4)"
       d="m 531.59286,204.84892 60.0529,1.75357"
       id="path4571-9"
       inkscape:connector-curvature="0" />
    <text
       xml:space="preserve"
       style="font-style:normal;font-weight:normal;font-size:40px;line-height:125%;font-family:sans-serif;letter-spacing:0px;word-spacing:0px;opacity:1;fill:#000000;fill-opacity:1;stroke:none;stroke-width:1px;stroke-linecap:butt;stroke-linejoin:miter;stroke-opacity:1"
       x="597.61072"
       y="203.6171"
       id="text4575-3"
       sodipodi:linespacing="125%"><tspan
         sodipodi:role="line"
         x="597.61072"
         y="203.6171"
         style="font-size:17.5px;fill:#000000;fill-opacity:1;stroke:none;stroke-opacity:1"
         id="tspan6851">Output</tspan><tspan
         sodipodi:role="line"
         x="597.61072"
         y="225.4921"
         style="font-size:17.5px;fill:#000000;fill-opacity:1;stroke:none;stroke-opacity:1"
         id="tspan5310">Reconstruction</tspan></text>
    <g
       transform="matrix(4.4290657,0,0,4.4290657,-691.89539,-346.06445)"
       ns0:text="$z$"
       ns0:preamble=""
       id="g4798">
      <defs
         id="defs4800">
        <g
           id="g4802">
          <symbol
             style="overflow:visible"
             overflow="visible"
             id="textext-7137bd72-0">
            <path
               inkscape:connector-curvature="0"
               style="stroke:none"
               d=""
               id="path4805" />
          </symbol>
          <symbol
             style="overflow:visible"
             overflow="visible"
             id="textext-7137bd72-1">
            <path
               inkscape:connector-curvature="0"
               style="stroke:none"
               d="m 1.328125,-0.828125 c 0.53125,-0.578125 0.828125,-0.828125 1.1875,-1.140625 0,0 0.609375,-0.53125 0.96875,-0.890625 C 4.4375,-3.78125 4.65625,-4.265625 4.65625,-4.3125 c 0,-0.09375 -0.09375,-0.09375 -0.109375,-0.09375 -0.078125,0 -0.09375,0.015625 -0.15625,0.109375 -0.296875,0.484375 -0.5,0.640625 -0.734375,0.640625 -0.25,0 -0.359375,-0.15625 -0.515625,-0.328125 -0.1875,-0.21875 -0.359375,-0.421875 -0.6875,-0.421875 -0.75,0 -1.203125,0.921875 -1.203125,1.140625 0,0.046875 0.03125,0.109375 0.109375,0.109375 0.09375,0 0.109375,-0.046875 0.140625,-0.109375 0.1875,-0.46875 0.765625,-0.46875 0.84375,-0.46875 0.203125,0 0.390625,0.0625 0.625,0.140625 0.40625,0.15625 0.515625,0.15625 0.765625,0.15625 -0.359375,0.421875 -1.1875,1.140625 -1.375,1.296875 l -0.90625,0.84375 C 0.78125,-0.625 0.421875,-0.0625 0.421875,0.015625 c 0,0.09375 0.109375,0.09375 0.125,0.09375 0.078125,0 0.09375,-0.015625 0.15625,-0.125 0.234375,-0.359375 0.53125,-0.625 0.859375,-0.625 0.21875,0 0.328125,0.09375 0.578125,0.375 0.15625,0.21875 0.34375,0.375 0.625,0.375 1,0 1.578125,-1.265625 1.578125,-1.53125 0,-0.046875 -0.046875,-0.109375 -0.125,-0.109375 -0.09375,0 -0.109375,0.0625 -0.140625,0.140625 C 3.84375,-0.75 3.203125,-0.5625 2.875,-0.5625 c -0.1875,0 -0.375,-0.0625 -0.578125,-0.125 -0.34375,-0.125 -0.5,-0.171875 -0.703125,-0.171875 -0.015625,0 -0.171875,0 -0.265625,0.03125 z m 0,0"
               id="path4808" />
          </symbol>
        </g>
      </defs>
      <g
         id="textext-7137bd72-2">
        <g
           style="fill:#000000;fill-opacity:1"
           id="g4811">
          <use
             height="100%"
             width="100%"
             xlink:href="#textext-7137bd72-1"
             x="223.43201"
             y="134.765"
             id="use4813" />
        </g>
      </g>
    </g>
    <g
       transform="matrix(2.0031299,0,0,2.0031299,-325.96742,-39.123171)"
       ns0:text="$q(z\\vert x)$"
       ns0:preamble=""
       id="g5484">
      <defs
         id="defs5486">
        <g
           id="g5488">
          <symbol
             style="overflow:visible"
             overflow="visible"
             id="textext-d5db56fb-0">
            <path
               inkscape:connector-curvature="0"
               style="stroke:none"
               d=""
               id="path5491" />
          </symbol>
          <symbol
             style="overflow:visible"
             overflow="visible"
             id="textext-d5db56fb-1">
            <path
               inkscape:connector-curvature="0"
               style="stroke:none"
               d="m 4.5,-4.296875 c 0,-0.046875 -0.03125,-0.09375 -0.09375,-0.09375 -0.109375,0 -0.515625,0.390625 -0.671875,0.6875 C 3.515625,-4.25 3.125,-4.40625 2.796875,-4.40625 c -1.171875,0 -2.390625,1.46875 -2.390625,2.921875 0,0.96875 0.578125,1.59375 1.3125,1.59375 0.421875,0 0.8125,-0.234375 1.171875,-0.59375 -0.09375,0.34375 -0.421875,1.6875 -0.453125,1.78125 -0.078125,0.28125 -0.15625,0.3125 -0.71875,0.328125 -0.125,0 -0.21875,0 -0.21875,0.203125 0,0 0,0.109375 0.125,0.109375 0.3125,0 0.671875,-0.03125 1,-0.03125 0.328125,0 0.6875,0.03125 1.03125,0.03125 0.046875,0 0.171875,0 0.171875,-0.203125 C 3.828125,1.625 3.734375,1.625 3.5625,1.625 3.09375,1.625 3.09375,1.5625 3.09375,1.46875 3.09375,1.390625 3.109375,1.328125 3.125,1.25 Z m -2.75,4.1875 c -0.609375,0 -0.640625,-0.765625 -0.640625,-0.9375 0,-0.484375 0.28125,-1.5625 0.453125,-1.984375 0.3125,-0.734375 0.828125,-1.15625 1.234375,-1.15625 0.65625,0 0.796875,0.8125 0.796875,0.875 0,0.0625 -0.546875,2.25 -0.578125,2.28125 C 2.859375,-0.75 2.296875,-0.109375 1.75,-0.109375 Z m 0,0"
               id="path5494" />
          </symbol>
          <symbol
             style="overflow:visible"
             overflow="visible"
             id="textext-d5db56fb-2">
            <path
               inkscape:connector-curvature="0"
               style="stroke:none"
               d="m 1.328125,-0.828125 c 0.53125,-0.578125 0.828125,-0.828125 1.1875,-1.140625 0,0 0.609375,-0.53125 0.96875,-0.890625 C 4.4375,-3.78125 4.65625,-4.265625 4.65625,-4.3125 c 0,-0.09375 -0.09375,-0.09375 -0.109375,-0.09375 -0.078125,0 -0.09375,0.015625 -0.15625,0.109375 -0.296875,0.484375 -0.5,0.640625 -0.734375,0.640625 -0.25,0 -0.359375,-0.15625 -0.515625,-0.328125 -0.1875,-0.21875 -0.359375,-0.421875 -0.6875,-0.421875 -0.75,0 -1.203125,0.921875 -1.203125,1.140625 0,0.046875 0.03125,0.109375 0.109375,0.109375 0.09375,0 0.109375,-0.046875 0.140625,-0.109375 0.1875,-0.46875 0.765625,-0.46875 0.84375,-0.46875 0.203125,0 0.390625,0.0625 0.625,0.140625 0.40625,0.15625 0.515625,0.15625 0.765625,0.15625 -0.359375,0.421875 -1.1875,1.140625 -1.375,1.296875 l -0.90625,0.84375 C 0.78125,-0.625 0.421875,-0.0625 0.421875,0.015625 c 0,0.09375 0.109375,0.09375 0.125,0.09375 0.078125,0 0.09375,-0.015625 0.15625,-0.125 0.234375,-0.359375 0.53125,-0.625 0.859375,-0.625 0.21875,0 0.328125,0.09375 0.578125,0.375 0.15625,0.21875 0.34375,0.375 0.625,0.375 1,0 1.578125,-1.265625 1.578125,-1.53125 0,-0.046875 -0.046875,-0.109375 -0.125,-0.109375 -0.09375,0 -0.109375,0.0625 -0.140625,0.140625 C 3.84375,-0.75 3.203125,-0.5625 2.875,-0.5625 c -0.1875,0 -0.375,-0.0625 -0.578125,-0.125 -0.34375,-0.125 -0.5,-0.171875 -0.703125,-0.171875 -0.015625,0 -0.171875,0 -0.265625,0.03125 z m 0,0"
               id="path5497" />
          </symbol>
          <symbol
             style="overflow:visible"
             overflow="visible"
             id="textext-d5db56fb-3">
            <path
               inkscape:connector-curvature="0"
               style="stroke:none"
               d="M 3.328125,-3.015625 C 3.390625,-3.265625 3.625,-4.1875 4.3125,-4.1875 c 0.046875,0 0.296875,0 0.5,0.125 C 4.53125,-4 4.34375,-3.765625 4.34375,-3.515625 c 0,0.15625 0.109375,0.34375 0.375,0.34375 0.21875,0 0.53125,-0.171875 0.53125,-0.578125 0,-0.515625 -0.578125,-0.65625 -0.921875,-0.65625 -0.578125,0 -0.921875,0.53125 -1.046875,0.75 -0.25,-0.65625 -0.78125,-0.75 -1.078125,-0.75 -1.03125,0 -1.609375,1.28125 -1.609375,1.53125 0,0.109375 0.109375,0.109375 0.125,0.109375 0.078125,0 0.109375,-0.03125 0.125,-0.109375 0.34375,-1.0625 1,-1.3125 1.34375,-1.3125 0.1875,0 0.53125,0.09375 0.53125,0.671875 0,0.3125 -0.171875,0.96875 -0.53125,2.375 -0.15625,0.609375 -0.515625,1.03125 -0.953125,1.03125 -0.0625,0 -0.28125,0 -0.5,-0.125 0.25,-0.0625 0.46875,-0.265625 0.46875,-0.546875 0,-0.265625 -0.21875,-0.34375 -0.359375,-0.34375 -0.3125,0 -0.546875,0.25 -0.546875,0.578125 0,0.453125 0.484375,0.65625 0.921875,0.65625 0.671875,0 1.03125,-0.703125 1.046875,-0.75 0.125,0.359375 0.484375,0.75 1.078125,0.75 1.03125,0 1.59375,-1.28125 1.59375,-1.53125 0,-0.109375 -0.078125,-0.109375 -0.109375,-0.109375 -0.09375,0 -0.109375,0.046875 -0.140625,0.109375 -0.328125,1.078125 -1,1.3125 -1.3125,1.3125 -0.390625,0 -0.546875,-0.3125 -0.546875,-0.65625 0,-0.21875 0.046875,-0.4375 0.15625,-0.875 z m 0,0"
               id="path5500" />
          </symbol>
          <symbol
             style="overflow:visible"
             overflow="visible"
             id="textext-d5db56fb-4">
            <path
               inkscape:connector-curvature="0"
               style="stroke:none"
               d=""
               id="path5503" />
          </symbol>
          <symbol
             style="overflow:visible"
             overflow="visible"
             id="textext-d5db56fb-5">
            <path
               inkscape:connector-curvature="0"
               style="stroke:none"
               d="m 3.296875,2.390625 c 0,-0.03125 0,-0.046875 -0.171875,-0.21875 C 1.890625,0.921875 1.5625,-0.96875 1.5625,-2.5 c 0,-1.734375 0.375,-3.46875 1.609375,-4.703125 0.125,-0.125 0.125,-0.140625 0.125,-0.171875 0,-0.078125 -0.03125,-0.109375 -0.09375,-0.109375 -0.109375,0 -1,0.6875 -1.59375,1.953125 -0.5,1.09375 -0.625,2.203125 -0.625,3.03125 0,0.78125 0.109375,1.984375 0.65625,3.125 C 2.25,1.84375 3.09375,2.5 3.203125,2.5 c 0.0625,0 0.09375,-0.03125 0.09375,-0.109375 z m 0,0"
               id="path5506" />
          </symbol>
          <symbol
             style="overflow:visible"
             overflow="visible"
             id="textext-d5db56fb-6">
            <path
               inkscape:connector-curvature="0"
               style="stroke:none"
               d="m 2.875,-2.5 c 0,-0.765625 -0.109375,-1.96875 -0.65625,-3.109375 -0.59375,-1.21875 -1.453125,-1.875 -1.546875,-1.875 -0.0625,0 -0.109375,0.046875 -0.109375,0.109375 0,0.03125 0,0.046875 0.1875,0.234375 0.984375,0.984375 1.546875,2.5625 1.546875,4.640625 0,1.71875 -0.359375,3.46875 -1.59375,4.71875 C 0.5625,2.34375 0.5625,2.359375 0.5625,2.390625 0.5625,2.453125 0.609375,2.5 0.671875,2.5 0.765625,2.5 1.671875,1.8125 2.25,0.546875 2.765625,-0.546875 2.875,-1.65625 2.875,-2.5 Z m 0,0"
               id="path5509" />
          </symbol>
          <symbol
             style="overflow:visible"
             overflow="visible"
             id="textext-d5db56fb-7">
            <path
               inkscape:connector-curvature="0"
               style="stroke:none"
               d=""
               id="path5512" />
          </symbol>
          <symbol
             style="overflow:visible"
             overflow="visible"
             id="textext-d5db56fb-8">
            <path
               inkscape:connector-curvature="0"
               style="stroke:none"
               d="m 1.578125,-7.125 c 0,-0.171875 0,-0.359375 -0.1875,-0.359375 -0.203125,0 -0.203125,0.1875 -0.203125,0.359375 l 0,9.265625 c 0,0.171875 0,0.359375 0.203125,0.359375 0.1875,0 0.1875,-0.1875 0.1875,-0.359375 z m 0,0"
               id="path5515" />
          </symbol>
        </g>
      </defs>
      <g
         id="textext-d5db56fb-9">
        <g
           style="fill:#000000;fill-opacity:1"
           id="g5518">
          <use
             height="100%"
             width="100%"
             xlink:href="#textext-d5db56fb-1"
             x="223.43201"
             y="134.765"
             id="use5520" />
        </g>
        <g
           style="fill:#000000;fill-opacity:1"
           id="g5522">
          <use
             height="100%"
             width="100%"
             xlink:href="#textext-d5db56fb-5"
             x="228.237"
             y="134.765"
             id="use5524" />
        </g>
        <g
           style="fill:#000000;fill-opacity:1"
           id="g5526">
          <use
             height="100%"
             width="100%"
             xlink:href="#textext-d5db56fb-2"
             x="232.11099"
             y="134.765"
             id="use5528" />
        </g>
        <g
           style="fill:#000000;fill-opacity:1"
           id="g5530">
          <use
             height="100%"
             width="100%"
             xlink:href="#textext-d5db56fb-8"
             x="237.183"
             y="134.765"
             id="use5532" />
        </g>
        <g
           style="fill:#000000;fill-opacity:1"
           id="g5534">
          <use
             height="100%"
             width="100%"
             xlink:href="#textext-d5db56fb-3"
             x="239.95"
             y="134.765"
             id="use5536" />
        </g>
        <g
           style="fill:#000000;fill-opacity:1"
           id="g5538">
          <use
             height="100%"
             width="100%"
             xlink:href="#textext-d5db56fb-6"
             x="245.644"
             y="134.765"
             id="use5540" />
        </g>
      </g>
    </g>
    <g
       id="g5930"
       ns0:preamble=""
       ns0:text="$p(x\\vert z)$"
       transform="matrix(2.0031299,0,0,2.0031299,7.6107283,-42.694602)">
      <defs
         id="defs5932">
        <g
           id="g5934">
          <symbol
             id="textext-692aac3d-0"
             overflow="visible"
             style="overflow:visible">
            <path
               id="path5937"
               d=""
               style="stroke:none"
               inkscape:connector-curvature="0" />
          </symbol>
          <symbol
             id="textext-692aac3d-1"
             overflow="visible"
             style="overflow:visible">
            <path
               id="path5940"
               d="M 0.453125,1.21875 C 0.375,1.5625 0.34375,1.625 -0.09375,1.625 c -0.109375,0 -0.21875,0 -0.21875,0.1875 0,0.078125 0.046875,0.125 0.125,0.125 0.265625,0 0.5625,-0.03125 0.828125,-0.03125 0.34375,0 0.671875,0.03125 1,0.03125 0.046875,0 0.171875,0 0.171875,-0.203125 C 1.8125,1.625 1.71875,1.625 1.578125,1.625 c -0.5,0 -0.5,-0.0625 -0.5,-0.15625 0,-0.125 0.421875,-1.75 0.484375,-2 0.125,0.296875 0.40625,0.640625 0.921875,0.640625 1.15625,0 2.40625,-1.453125 2.40625,-2.921875 0,-0.9375 -0.578125,-1.59375 -1.328125,-1.59375 -0.5,0 -0.984375,0.359375 -1.3125,0.75 -0.09375,-0.546875 -0.53125,-0.75 -0.890625,-0.75 -0.46875,0 -0.65625,0.390625 -0.734375,0.5625 C 0.4375,-3.5 0.3125,-2.90625 0.3125,-2.875 c 0,0.109375 0.09375,0.109375 0.109375,0.109375 0.109375,0 0.109375,-0.015625 0.171875,-0.234375 0.171875,-0.703125 0.375,-1.1875 0.734375,-1.1875 0.171875,0 0.3125,0.078125 0.3125,0.453125 0,0.234375 -0.03125,0.34375 -0.078125,0.515625 z m 1.75,-4.328125 C 2.265625,-3.375 2.546875,-3.65625 2.71875,-3.8125 c 0.359375,-0.296875 0.640625,-0.375 0.8125,-0.375 0.390625,0 0.640625,0.34375 0.640625,0.9375 0,0.59375 -0.328125,1.734375 -0.515625,2.109375 -0.34375,0.703125 -0.8125,1.03125 -1.1875,1.03125 C 1.8125,-0.109375 1.6875,-0.9375 1.6875,-1 c 0,-0.015625 0,-0.03125 0.03125,-0.15625 z m 0,0"
               style="stroke:none"
               inkscape:connector-curvature="0" />
          </symbol>
          <symbol
             id="textext-692aac3d-2"
             overflow="visible"
             style="overflow:visible">
            <path
               id="path5943"
               d="M 3.328125,-3.015625 C 3.390625,-3.265625 3.625,-4.1875 4.3125,-4.1875 c 0.046875,0 0.296875,0 0.5,0.125 C 4.53125,-4 4.34375,-3.765625 4.34375,-3.515625 c 0,0.15625 0.109375,0.34375 0.375,0.34375 0.21875,0 0.53125,-0.171875 0.53125,-0.578125 0,-0.515625 -0.578125,-0.65625 -0.921875,-0.65625 -0.578125,0 -0.921875,0.53125 -1.046875,0.75 -0.25,-0.65625 -0.78125,-0.75 -1.078125,-0.75 -1.03125,0 -1.609375,1.28125 -1.609375,1.53125 0,0.109375 0.109375,0.109375 0.125,0.109375 0.078125,0 0.109375,-0.03125 0.125,-0.109375 0.34375,-1.0625 1,-1.3125 1.34375,-1.3125 0.1875,0 0.53125,0.09375 0.53125,0.671875 0,0.3125 -0.171875,0.96875 -0.53125,2.375 -0.15625,0.609375 -0.515625,1.03125 -0.953125,1.03125 -0.0625,0 -0.28125,0 -0.5,-0.125 0.25,-0.0625 0.46875,-0.265625 0.46875,-0.546875 0,-0.265625 -0.21875,-0.34375 -0.359375,-0.34375 -0.3125,0 -0.546875,0.25 -0.546875,0.578125 0,0.453125 0.484375,0.65625 0.921875,0.65625 0.671875,0 1.03125,-0.703125 1.046875,-0.75 0.125,0.359375 0.484375,0.75 1.078125,0.75 1.03125,0 1.59375,-1.28125 1.59375,-1.53125 0,-0.109375 -0.078125,-0.109375 -0.109375,-0.109375 -0.09375,0 -0.109375,0.046875 -0.140625,0.109375 -0.328125,1.078125 -1,1.3125 -1.3125,1.3125 -0.390625,0 -0.546875,-0.3125 -0.546875,-0.65625 0,-0.21875 0.046875,-0.4375 0.15625,-0.875 z m 0,0"
               style="stroke:none"
               inkscape:connector-curvature="0" />
          </symbol>
          <symbol
             id="textext-692aac3d-3"
             overflow="visible"
             style="overflow:visible">
            <path
               id="path5946"
               d="m 1.328125,-0.828125 c 0.53125,-0.578125 0.828125,-0.828125 1.1875,-1.140625 0,0 0.609375,-0.53125 0.96875,-0.890625 C 4.4375,-3.78125 4.65625,-4.265625 4.65625,-4.3125 c 0,-0.09375 -0.09375,-0.09375 -0.109375,-0.09375 -0.078125,0 -0.09375,0.015625 -0.15625,0.109375 -0.296875,0.484375 -0.5,0.640625 -0.734375,0.640625 -0.25,0 -0.359375,-0.15625 -0.515625,-0.328125 -0.1875,-0.21875 -0.359375,-0.421875 -0.6875,-0.421875 -0.75,0 -1.203125,0.921875 -1.203125,1.140625 0,0.046875 0.03125,0.109375 0.109375,0.109375 0.09375,0 0.109375,-0.046875 0.140625,-0.109375 0.1875,-0.46875 0.765625,-0.46875 0.84375,-0.46875 0.203125,0 0.390625,0.0625 0.625,0.140625 0.40625,0.15625 0.515625,0.15625 0.765625,0.15625 -0.359375,0.421875 -1.1875,1.140625 -1.375,1.296875 l -0.90625,0.84375 C 0.78125,-0.625 0.421875,-0.0625 0.421875,0.015625 c 0,0.09375 0.109375,0.09375 0.125,0.09375 0.078125,0 0.09375,-0.015625 0.15625,-0.125 0.234375,-0.359375 0.53125,-0.625 0.859375,-0.625 0.21875,0 0.328125,0.09375 0.578125,0.375 0.15625,0.21875 0.34375,0.375 0.625,0.375 1,0 1.578125,-1.265625 1.578125,-1.53125 0,-0.046875 -0.046875,-0.109375 -0.125,-0.109375 -0.09375,0 -0.109375,0.0625 -0.140625,0.140625 C 3.84375,-0.75 3.203125,-0.5625 2.875,-0.5625 c -0.1875,0 -0.375,-0.0625 -0.578125,-0.125 -0.34375,-0.125 -0.5,-0.171875 -0.703125,-0.171875 -0.015625,0 -0.171875,0 -0.265625,0.03125 z m 0,0"
               style="stroke:none"
               inkscape:connector-curvature="0" />
          </symbol>
          <symbol
             id="textext-692aac3d-4"
             overflow="visible"
             style="overflow:visible">
            <path
               id="path5949"
               d=""
               style="stroke:none"
               inkscape:connector-curvature="0" />
          </symbol>
          <symbol
             id="textext-692aac3d-5"
             overflow="visible"
             style="overflow:visible">
            <path
               id="path5952"
               d="m 3.296875,2.390625 c 0,-0.03125 0,-0.046875 -0.171875,-0.21875 C 1.890625,0.921875 1.5625,-0.96875 1.5625,-2.5 c 0,-1.734375 0.375,-3.46875 1.609375,-4.703125 0.125,-0.125 0.125,-0.140625 0.125,-0.171875 0,-0.078125 -0.03125,-0.109375 -0.09375,-0.109375 -0.109375,0 -1,0.6875 -1.59375,1.953125 -0.5,1.09375 -0.625,2.203125 -0.625,3.03125 0,0.78125 0.109375,1.984375 0.65625,3.125 C 2.25,1.84375 3.09375,2.5 3.203125,2.5 c 0.0625,0 0.09375,-0.03125 0.09375,-0.109375 z m 0,0"
               style="stroke:none"
               inkscape:connector-curvature="0" />
          </symbol>
          <symbol
             id="textext-692aac3d-6"
             overflow="visible"
             style="overflow:visible">
            <path
               id="path5955"
               d="m 2.875,-2.5 c 0,-0.765625 -0.109375,-1.96875 -0.65625,-3.109375 -0.59375,-1.21875 -1.453125,-1.875 -1.546875,-1.875 -0.0625,0 -0.109375,0.046875 -0.109375,0.109375 0,0.03125 0,0.046875 0.1875,0.234375 0.984375,0.984375 1.546875,2.5625 1.546875,4.640625 0,1.71875 -0.359375,3.46875 -1.59375,4.71875 C 0.5625,2.34375 0.5625,2.359375 0.5625,2.390625 0.5625,2.453125 0.609375,2.5 0.671875,2.5 0.765625,2.5 1.671875,1.8125 2.25,0.546875 2.765625,-0.546875 2.875,-1.65625 2.875,-2.5 Z m 0,0"
               style="stroke:none"
               inkscape:connector-curvature="0" />
          </symbol>
          <symbol
             id="textext-692aac3d-7"
             overflow="visible"
             style="overflow:visible">
            <path
               id="path5958"
               d=""
               style="stroke:none"
               inkscape:connector-curvature="0" />
          </symbol>
          <symbol
             id="textext-692aac3d-8"
             overflow="visible"
             style="overflow:visible">
            <path
               id="path5961"
               d="m 1.578125,-7.125 c 0,-0.171875 0,-0.359375 -0.1875,-0.359375 -0.203125,0 -0.203125,0.1875 -0.203125,0.359375 l 0,9.265625 c 0,0.171875 0,0.359375 0.203125,0.359375 0.1875,0 0.1875,-0.1875 0.1875,-0.359375 z m 0,0"
               style="stroke:none"
               inkscape:connector-curvature="0" />
          </symbol>
        </g>
      </defs>
      <g
         id="textext-692aac3d-9">
        <g
           id="g5964"
           style="fill:#000000;fill-opacity:1">
          <use
             id="use5966"
             y="134.765"
             x="223.43201"
             xlink:href="#textext-692aac3d-1"
             width="100%"
             height="100%" />
        </g>
        <g
           id="g5968"
           style="fill:#000000;fill-opacity:1">
          <use
             id="use5970"
             y="134.765"
             x="228.44501"
             xlink:href="#textext-692aac3d-5"
             width="100%"
             height="100%" />
        </g>
        <g
           id="g5972"
           style="fill:#000000;fill-opacity:1">
          <use
             id="use5974"
             y="134.765"
             x="232.319"
             xlink:href="#textext-692aac3d-2"
             width="100%"
             height="100%" />
        </g>
        <g
           id="g5976"
           style="fill:#000000;fill-opacity:1">
          <use
             id="use5978"
             y="134.765"
             x="238.013"
             xlink:href="#textext-692aac3d-8"
             width="100%"
             height="100%" />
        </g>
        <g
           id="g5980"
           style="fill:#000000;fill-opacity:1">
          <use
             id="use5982"
             y="134.765"
             x="240.78"
             xlink:href="#textext-692aac3d-3"
             width="100%"
             height="100%" />
        </g>
        <g
           id="g5984"
           style="fill:#000000;fill-opacity:1">
          <use
             id="use5986"
             y="134.765"
             x="245.85201"
             xlink:href="#textext-692aac3d-6"
             width="100%"
             height="100%" />
        </g>
      </g>
    </g>
  </g>
</svg>
